<?xml version="1.0" encoding="utf-8"?>
<!-- Generator: Adobe Illustrator 16.0.0, SVG Export Plug-In . SVG Version: 6.00 Build 0)  -->
<!DOCTYPE svg PUBLIC "-//W3C//DTD SVG 1.1//EN" "http://www.w3.org/Graphics/SVG/1.1/DTD/svg11.dtd">
<svg version="1.1" id="Layer_1" xmlns="http://www.w3.org/2000/svg" xmlns:xlink="http://www.w3.org/1999/xlink" x="0px" y="0px"
	 width="47.889px" height="25.4px" viewBox="0 0 47.889 25.4" enable-background="new 0 0 47.889 25.4" xml:space="preserve">
<g>
	<path fill="#F3F3F3" d="M25.559,25.4c-2.234-0.133-3.402-0.808-4.002-1.558c0.115-1.823,0.447-4.095,1.385-6.155
		c0.537-1.181,1.297-2.25,2.232-3.034c1.021-0.938,6.441-3.925,6.965-4.104c0.525-0.17,1.471-0.491,2.615-0.847
		c1.141-0.327,2.521-0.801,3.701-1.38c2.416-1.108,4.422-2.357,4.418-2.358c0.004,0-2.139,0.996-4.627,1.821
		c-1.258,0.449-2.539,0.745-3.738,0.976c-1.178,0.254-2.174,0.513-2.721,0.69c-1.025,0.359-7.166,2.005-10.303,7.526
		c-0.711,1.41-1.156,2.869-1.444,4.235c-0.709-0.335-1.592-0.984-1.832-2.186c-0.419-2.093-0.187-8.374,6.606-11.863
		c6.791-3.489,14.375-2.792,18.004-3.815S47.889,0,47.889,0S44.865,23.679,25.559,25.4z"/>
	<polygon fill="#F3F3F3" points="7.131,20.508 3.045,15.615 7.071,10.723 8.053,9.375 8.053,5.831 4.086,10.723 0,15.615 
		4.025,20.508 8.053,25.4 8.053,21.856 	"/>
</g>
</svg>
