<?xml version="1.0" encoding="utf-8"?>
<!-- Generator: Adobe Illustrator 16.0.0, SVG Export Plug-In . SVG Version: 6.00 Build 0)  -->
<!DOCTYPE svg PUBLIC "-//W3C//DTD SVG 1.1//EN" "http://www.w3.org/Graphics/SVG/1.1/DTD/svg11.dtd">
<svg version="1.1" id="Layer_1" xmlns="http://www.w3.org/2000/svg" xmlns:xlink="http://www.w3.org/1999/xlink" x="0px" y="0px"
	 width="105px" height="89.472px" viewBox="0 0 105 89.472" enable-background="new 0 0 105 89.472" xml:space="preserve">
<path fill="#54863F" d="M26.343,89.472c-7.871-0.47-11.984-2.846-14.098-5.485c0.405-6.423,1.579-14.424,4.877-21.685
	c1.89-4.158,4.575-7.923,7.866-10.689c3.6-3.297,6.925-5.836,10.276-7.928c6.614-4.104,12.416-5.893,14.253-6.523
	c1.855-0.6,5.186-1.729,9.217-2.985c4.018-1.154,8.883-2.822,13.035-4.861c8.516-3.903,15.573-8.306,15.561-8.307
	c0.016,0.001-7.531,3.507-16.299,6.415c-4.423,1.581-8.943,2.621-13.161,3.438c-4.153,0.895-7.658,1.806-9.589,2.431
	c-3.61,1.264-25.242,7.064-36.292,26.51C9.49,64.769,7.921,69.907,6.907,74.721C4.408,73.54,1.3,71.253,0.453,67.022
	c-1.476-7.374-0.655-29.497,23.269-41.787c23.925-12.29,50.635-9.833,63.417-13.438C99.921,8.194,105,0,105,0
	S94.349,83.409,26.343,89.472z"/>
</svg>
